<?xml version="1.0" encoding="UTF-8" standalone="no"?>
<svg
   xmlns:dc="http://purl.org/dc/elements/1.1/"
   xmlns:cc="http://creativecommons.org/ns#"
   xmlns:rdf="http://www.w3.org/1999/02/22-rdf-syntax-ns#"
   xmlns:svg="http://www.w3.org/2000/svg"
   xmlns="http://www.w3.org/2000/svg"
   id="svg8"
   version="1.1"
   viewBox="0 0 210 297"
   height="297mm"
   width="210mm">
  <defs
     id="defs2" />
  <metadata
     id="metadata5">
    <rdf:RDF>
      <cc:Work
         rdf:about="">
        <dc:format>image/svg+xml</dc:format>
        <dc:type
           rdf:resource="http://purl.org/dc/dcmitype/StillImage" />
        <dc:title></dc:title>
      </cc:Work>
    </rdf:RDF>
  </metadata>
  <g
     id="layer1">
    <g
       transform="matrix(1.082356,0,0,1,4.3797356,115.66071)"
       id="g21">
      <path
         id="path25"
         d="M 38.610268,94.404766 V 53.129765 h 59.66354 59.663542 V 94.404766 135.67977 H 98.273808 38.610268 Z"
         style="fill:#fbfbfb;stroke-width:0.26458335" />
      <path
         id="path23"
         d="m 74.329017,126.7849 c -2.046105,-0.79355 -3.108328,-1.72547 -3.333231,-2.92431 -0.09065,-0.48321 -0.679016,-1.68275 -1.307481,-2.66563 -1.197623,-1.87303 -2.238454,-5.00217 -2.238454,-6.72966 0,-1.25309 0.419602,-3.33111 1.099272,-5.44398 0.45589,-1.41721 0.495678,-1.91198 0.276593,-3.43958 -0.140743,-0.98135 -0.37982,-2.14145 -0.531284,-2.57801 -0.553794,-1.5962 -0.934751,-4.044397 -1.132205,-7.276047 -0.111141,-1.81901 -0.284093,-3.694872 -0.384336,-4.168579 -0.201621,-0.952789 0.188476,-4.184325 0.862957,-7.14865 0.412255,-1.811857 0.516289,-1.98459 1.777092,-2.950605 0.736561,-0.564346 1.770878,-1.204095 2.298483,-1.421667 0.527603,-0.21757 1.182447,-0.716844 1.455209,-1.109496 0.601443,-0.865809 0.962123,-1.220747 2.403723,-2.36546 1.055754,-0.838327 1.201124,-0.877852 2.778125,-0.755338 1.506932,0.117071 1.850766,0.03932 3.64099,-0.82338 2.282716,-1.100025 2.882386,-1.143421 5.877681,-0.425346 1.209765,0.290022 2.616293,0.529436 3.125616,0.532031 0.509322,0.0026 1.510511,0.182022 2.224862,0.398728 1.984534,0.602029 3.829899,0.509086 5.288293,-0.26635 1.233983,-0.656115 1.531358,-0.699894 4.470358,-0.658125 0.84286,0.01198 1.93567,-0.124018 2.42847,-0.302215 0.74637,-0.269891 1.12514,-0.249988 2.26822,0.119187 1.49427,0.482595 2.94328,0.570422 3.64396,0.220868 0.64838,-0.323459 5.33326,0.101669 6.50206,0.590027 0.91039,0.380385 1.24755,0.379682 3.82103,-0.008 2.11227,-0.318182 3.79192,-0.384656 6.6748,-0.264164 l 3.85227,0.161009 1.85856,-0.890687 c 1.0222,-0.489878 2.10686,-1.206364 2.41035,-1.592191 l 0.5518,-0.701504 -0.87186,-1.909539 c -1.04485,-2.288432 -1.38067,-4.081775 -1.73469,-9.263485 -0.31038,-4.542916 -0.20911,-4.949179 1.23359,-4.949179 0.74147,0 1.09863,0.182561 1.64433,0.840498 0.38343,0.462274 2.27963,2.427005 4.21377,4.366069 l 3.51665,3.525571 3.89169,-0.170283 c 3.38122,-0.147947 4.16934,-0.271377 6.00836,-0.940989 3.18315,-1.159025 3.04271,-1.133912 3.04271,-0.544087 0,1.272976 -0.59585,3.504867 -1.34399,5.03419 -0.98299,2.009422 -2.50409,3.236777 -5.79976,4.679757 -2.74483,1.201801 -3.26025,1.392797 -4.71135,1.745895 -1.82372,0.443766 -3.07737,1.780754 -3.75182,4.001207 -0.31401,1.033802 -0.914,2.487664 -1.33331,3.230801 -0.41931,0.743141 -0.93127,2.075323 -1.13767,2.96041 -0.20789,0.891413 -0.73793,2.109854 -1.18826,2.731519 -0.85791,1.184317 -1.08538,2.050166 -1.77901,6.771735 -0.34612,2.356073 -0.37079,3.237985 -0.12949,4.630209 0.64576,3.725885 0.79131,4.967825 0.79642,6.795725 0.003,1.04551 0.19007,2.77191 0.41587,3.83646 0.4946,2.33184 0.41365,2.83749 -1.1098,6.93189 -1.38437,3.72063 -2.62689,5.8807 -3.85245,6.69737 -2.01425,1.34225 -4.63205,2.21065 -7.01541,2.32725 -1.26113,0.0617 -2.62166,0.24832 -3.0234,0.41473 -0.55342,0.22923 -1.23041,0.2231 -2.7934,-0.0253 -3.00265,-0.47718 -8.52442,-0.60175 -11.72025,-0.2644 -1.52797,0.16129 -4.10932,0.40112 -5.73633,0.53296 -1.62701,0.13183 -3.438085,0.36892 -4.024621,0.52685 -0.706633,0.19028 -1.583166,0.20622 -2.598052,0.0472 -1.628759,-0.25514 -5.760781,0.005 -7.709035,0.48499 -1.355614,0.33411 -2.761721,0.1338 -3.907986,-0.55671 -0.987208,-0.5947 -1.394878,-0.61485 -2.539481,-0.12553 -1.293159,0.55283 -2.809481,0.91493 -4.440748,1.06046 -1.142175,0.10189 -1.825159,-0.0136 -3.175,-0.53718 z m 6.482291,-3.09092 c 3.524986,-0.47013 4.984428,-0.84607 5.446623,-1.40298 0.191889,-0.23121 1.228733,-1.08258 2.304097,-1.89192 1.075365,-0.80934 2.018861,-1.6374 2.096656,-1.84013 0.0778,-0.20274 -0.139972,-0.66817 -0.48393,-1.03429 l -0.625375,-0.66568 0.658048,-0.49956 c 1.546741,-1.1742 1.747875,-1.19589 2.769828,-0.2986 1.052734,0.92431 2.808941,1.89186 3.433929,1.89186 0.711806,0 0.437057,0.63885 -0.568947,1.32292 -0.726948,0.49432 -1.244626,0.64082 -2.048714,0.57978 -0.987586,-0.075 -1.183917,0.0284 -2.390224,1.25807 l -1.31426,1.33977 0.536784,0.53678 c 0.609949,0.60995 1.212223,0.64204 5.928193,0.31587 1.67349,-0.11575 3.370252,-0.3747 3.770584,-0.57545 0.61149,-0.30664 1.08245,-0.30985 2.94538,-0.02 1.94565,0.30267 2.37541,0.29283 3.50546,-0.0803 2.54376,-0.83984 8.09511,-1.59807 13.06191,-1.78405 4.02548,-0.15073 5.16381,-0.28296 6.40954,-0.74458 0.8331,-0.30871 1.91168,-0.56129 2.39682,-0.56129 0.48515,0 1.06379,-0.14883 1.28587,-0.33073 1.00863,-0.82615 2.46112,-2.99213 3.16287,-4.71652 l 0.76782,-1.88676 0.003,-5.99186 c 0.002,-4.16819 -0.13038,-6.941064 -0.43577,-9.110589 -0.40179,-2.854288 -0.40369,-3.246898 -0.0224,-4.630208 0.22912,-0.831311 0.67368,-2.523506 0.98792,-3.760433 0.31423,-1.236927 0.86713,-2.993875 1.22867,-3.904327 0.36153,-0.910455 0.99225,-2.636862 1.4016,-3.836459 0.93913,-2.75212 2.3756,-6.107225 3.18678,-7.443241 0.3595,-0.59209 1.30636,-1.471194 2.23056,-2.070944 2.1884,-1.420124 5.79169,-3.117947 6.61723,-3.117947 1.12777,0 0.76139,-0.483673 -0.69371,-0.915791 -1.9685,-0.584581 -2.44358,-0.52249 -4.46636,0.583729 -1.3469,0.736595 -1.88855,0.91413 -2.11083,0.691859 -0.22227,-0.222271 -0.18602,-0.517449 0.14125,-1.150316 0.61678,-1.192724 0.22853,-1.981574 -2.01856,-4.101371 -1.74881,-1.649737 -2.86064,-2.228357 -2.506,-1.304179 0.0883,0.230183 0.1606,0.752078 0.1606,1.159767 0,0.521056 0.15869,0.782748 0.53419,0.880943 0.46746,0.122244 0.49616,0.223134 0.2298,0.807736 -0.40893,0.897486 -0.1274,1.550779 0.62327,1.446331 0.52816,-0.07349 0.61239,0.05442 0.72941,1.107542 0.11759,1.058334 0.20579,1.190625 0.79375,1.190625 0.53179,0 0.67847,0.148899 0.74826,0.759574 0.0478,0.417765 0.0119,1.058066 -0.0797,1.42289 -0.2397,0.955063 -2.89923,3.64086 -4.67102,4.717169 -2.68419,1.630559 -4.13431,1.99474 -8.96214,2.250736 -2.4011,0.127319 -6.50875,0.347761 -9.12813,0.489872 -4.94218,0.268132 -6.90409,0.123206 -9.50782,-0.702337 -1.02233,-0.324143 -1.94752,-0.377344 -4.26268,-0.245116 -1.88715,0.107783 -3.25545,0.06482 -3.78202,-0.118739 -0.65746,-0.229191 -1.06702,-0.19522 -2.016057,0.167221 -0.683053,0.26086 -1.898417,0.451043 -2.849747,0.445934 -15.01271,-0.08063 -16.212497,-0.02563 -17.798341,0.815825 -0.291041,0.154428 -0.85422,0.445008 -1.251511,0.645734 -0.39729,0.200726 -0.780057,0.458338 -0.850595,0.572473 -0.07054,0.114134 -0.910675,0.665094 -1.866966,1.224355 -1.972107,1.153329 -2.776048,2.229977 -2.781652,3.725222 -0.0021,0.564909 -0.183589,1.543169 -0.403268,2.173912 -0.667559,1.91671 -0.775004,3.998719 -0.268557,5.203979 0.406884,0.968319 0.735827,3.28042 1.110332,7.804419 0.103635,1.2519 0.02103,2.04372 -0.30357,2.91042 -0.688398,1.83798 -0.745318,2.50762 -0.288271,3.39145 0.551063,1.06564 0.552593,4.09709 0.0031,6.21752 -0.236408,0.91233 -0.36208,2.13823 -0.288713,2.81631 0.189407,1.75056 1.260744,6.43949 1.556041,6.81033 0.139229,0.17485 0.868431,0.62801 1.620453,1.00702 1.496108,0.75403 1.391854,0.75324 6.658978,0.0507 z m 21.695832,-9.32881 c -0.29104,-0.067 -1.18401,-0.2499 -1.98437,-0.40639 -0.800368,-0.15649 -2.467243,-0.76633 -3.70417,-1.35519 -4.070467,-1.93782 -7.520287,-6.17104 -8.470178,-10.39361 -0.792451,-3.522707 -0.126992,-8.070575 1.635662,-11.178447 4.587539,-8.088647 15.982456,-10.577339 24.006336,-5.243074 4.41463,2.934838 6.90526,7.569534 6.90526,12.849641 0,4.4148 -1.37158,7.72493 -4.49603,10.85055 -2.16482,2.16564 -4.08135,3.31935 -6.99551,4.21117 -1.75024,0.53562 -5.77454,0.92384 -6.897,0.66535 z m 6.74688,-3.27551 c 4.63755,-1.56199 8.0269,-5.37379 8.80206,-9.89915 1.02577,-5.988387 -3.2761,-12.105718 -9.72811,-13.833527 -1.77701,-0.475874 -5.48497,-0.45353 -7.39734,0.04458 -5.016201,1.306558 -8.819428,5.3124 -9.665621,10.180559 -1.048041,6.029408 3.406849,12.221538 9.993731,13.890918 2.10672,0.53392 5.79719,0.35696 7.99528,-0.38338 z m -5.75749,-2.57011 c -0.9917,-0.48885 -2.4446,-2.04279 -2.4446,-2.61462 0,-0.26862 0.29214,-0.38766 0.95137,-0.38766 1.58351,0 3.01738,-1.19072 3.01738,-2.50569 0,-0.59009 -1.2652,-1.92038 -2.00239,-2.1054 -0.86738,-0.2177 -0.72579,-0.63494 0.42487,-1.252048 2.23635,-1.19937 5.56095,-0.09695 6.78093,2.248518 0.50262,0.96631 0.50262,3.35251 0,4.31881 -1.19947,2.30605 -4.45524,3.4182 -6.72756,2.29809 z"
         style="fill:#121212;stroke-width:0.26458335" />
    </g>
  </g>
</svg>
